<svg xmlns="http://www.w3.org/2000/svg" xmlns:xlink="http://www.w3.org/1999/xlink" viewBox="0 0 223.7 96.6"><defs><style>.cls-1{fill:none;}.cls-2,.cls-7{fill:#1e375a;}.cls-3{fill:#00abe1;}.cls-4{clip-path:url(#clip-path);}.cls-5{fill:#c2d2e7;}.cls-6{clip-path:url(#clip-path-2);}.cls-7{isolation:isolate;font-size:19px;font-family:OpenSans-Semibold, Open Sans;font-weight:600;}</style><clipPath id="clip-path"><rect class="cls-1" x="88.96" y="9.64" width="59.5" height="56.4" transform="translate(-2.23 7.89) rotate(-3.77)"/></clipPath><clipPath id="clip-path-2"><rect class="cls-1" x="89.06" y="9.24" width="59.3" height="56.2" transform="translate(-2.2 7.88) rotate(-3.77)"/></clipPath></defs><g id="Layer_2" data-name="Layer 2"><g id="Layer_1-2" data-name="Layer 1"><path class="cls-2" d="M24.55,45a9.52,9.52,0,0,0,2.5-.3,5.08,5.08,0,0,0,1.8-.9,6.34,6.34,0,0,0,1.1-1.3,2.82,2.82,0,0,0,.4-1.5,5,5,0,0,0-.2-1.2,2.59,2.59,0,0,0-.7-1.1,3.6,3.6,0,0,0-1.2-.8,3.65,3.65,0,0,0-1.5-.3h-7.6V29h7.6a3.34,3.34,0,0,0,1.5-.3,2.55,2.55,0,0,0,1.2-.8,4.13,4.13,0,0,0,.7-1.1,2.54,2.54,0,0,0,.2-1.2,2.82,2.82,0,0,0-.4-1.5,2.76,2.76,0,0,0-1.1-1.3,7.68,7.68,0,0,0-1.8-1,9,9,0,0,0-2.5-.3,8.68,8.68,0,0,0-4.2,1,10.78,10.78,0,0,0-3.7,3.1H7.85V13.84c.8-.3,1.6-.7,2.5-1s1.8-.6,2.9-.9a62.69,62.69,0,0,1,6.3-1.3A51.69,51.69,0,0,1,28,10a28.38,28.38,0,0,1,9.2,1.3,22.54,22.54,0,0,1,6.6,3.2,12,12,0,0,1,3.9,4.6,11.22,11.22,0,0,1,1.3,5.3,9.69,9.69,0,0,1-.6,3.6,9.17,9.17,0,0,1-1.4,2.6,7.28,7.28,0,0,1-1.8,1.7,9.47,9.47,0,0,1-1.7.9,18,18,0,0,1,1.8,1,9.37,9.37,0,0,1,1.8,1.7,8.42,8.42,0,0,1,1.3,2.5,9.51,9.51,0,0,1,.6,3.5,11.22,11.22,0,0,1-1.3,5.3,14.11,14.11,0,0,1-3.9,4.6,22.58,22.58,0,0,1-6.6,3.3,31.59,31.59,0,0,1-9.2,1.2c-2.5,0-4.8-.1-6.8-.3s-3.8-.5-5.5-.8a32.51,32.51,0,0,1-4.3-1.2c-1.3-.4-2.4-.9-3.5-1.3V40.94h8.8a10.78,10.78,0,0,0,3.7,3.1A9.24,9.24,0,0,0,24.55,45Zm74.8-18.4v7.8a27.25,27.25,0,0,1-1.6,10,19.34,19.34,0,0,1-4.3,6.8,14.78,14.78,0,0,1-6.4,3.7,28.82,28.82,0,0,1-7.8,1.1,37,37,0,0,1-9-1.1,17.63,17.63,0,0,1-7.2-3.7,18.64,18.64,0,0,1-4.8-6.8,25.17,25.17,0,0,1-1.8-10v-7.8l-3.5-.7V14.54h22.8V26l-3.5.7v9.5a11,11,0,0,0,.2,1.8,8.24,8.24,0,0,0,.6,1.9,6.1,6.1,0,0,0,1.2,1.6,5.61,5.61,0,0,0,2,1.2,8.47,8.47,0,0,0,2.9.4,8.12,8.12,0,0,0,2.9-.4,5.61,5.61,0,0,0,2-1.2,6.57,6.57,0,0,0,1.2-1.7,6,6,0,0,0,.6-1.9,12.37,12.37,0,0,0,.2-1.8c0-.6.1-1.1.1-1.6v-7.9l-3.5-.7V14.54h20.2V26Z"/><path class="cls-3" d="M129.35,34.54a24.81,24.81,0,0,1,1.7-9.5,16.9,16.9,0,0,1,4.7-6.6,19.24,19.24,0,0,1,7.4-3.8,36.13,36.13,0,0,1,9.7-1.3,49.69,49.69,0,0,1,5.8.3,45.59,45.59,0,0,1,4.7.8,27.35,27.35,0,0,1,3.7,1.1c1.1.4,2,.8,2.8,1.1v12.7h-8.3c-.4-.6-.9-1.2-1.3-1.7a5.26,5.26,0,0,0-1.4-1.2,8.65,8.65,0,0,0-1.7-.7,7.5,7.5,0,0,0-2.2-.2,10.47,10.47,0,0,0-3,.5,6.81,6.81,0,0,0-2.6,1.5,9.09,9.09,0,0,0-1.8,2.7,12.07,12.07,0,0,0-.7,4.1,15.35,15.35,0,0,0,.6,4.7,7.32,7.32,0,0,0,1.6,2.9,6.14,6.14,0,0,0,2.6,1.5,12.48,12.48,0,0,0,3.5.4,17,17,0,0,0,2.2-.1,12.88,12.88,0,0,0,2.5-.6v-3.3H154v-7.1h17.1v19.4c-1.4.6-3,1.2-4.6,1.7s-3.2,1-4.9,1.4a40,40,0,0,1-4.8.8c-1.6.1-3,.2-4.3.2a33.36,33.36,0,0,1-9.1-1.2,19.48,19.48,0,0,1-7.4-3.9,18.87,18.87,0,0,1-4.9-6.8A27.19,27.19,0,0,1,129.35,34.54Zm44.9,0A24.81,24.81,0,0,1,176,25a16.9,16.9,0,0,1,4.7-6.6,19.24,19.24,0,0,1,7.4-3.8,36.13,36.13,0,0,1,9.7-1.3,49.69,49.69,0,0,1,5.8.3c1.7.2,3.3.5,4.7.8a27.35,27.35,0,0,1,3.7,1.1c1.1.4,2,.8,2.8,1.1v12.7h-8.3c-.4-.6-.9-1.2-1.3-1.7a5.26,5.26,0,0,0-1.4-1.2,8.65,8.65,0,0,0-1.7-.7,7.5,7.5,0,0,0-2.2-.2,10.47,10.47,0,0,0-3,.5,6.81,6.81,0,0,0-2.6,1.5,9.09,9.09,0,0,0-1.8,2.7,12.07,12.07,0,0,0-.7,4.1,15.35,15.35,0,0,0,.6,4.7,7.32,7.32,0,0,0,1.6,2.9,6.14,6.14,0,0,0,2.6,1.5,12.48,12.48,0,0,0,3.5.4,17,17,0,0,0,2.2-.1,10.55,10.55,0,0,0,2.4-.6v-3.3h-5.9v-7.1h17.1v19.4c-1.4.6-3,1.2-4.6,1.7s-3.2,1-4.9,1.4a40,40,0,0,1-4.8.8c-1.6.1-3,.2-4.3.2a33.36,33.36,0,0,1-9.1-1.2,19.48,19.48,0,0,1-7.4-3.9,18.87,18.87,0,0,1-4.9-6.8A29.6,29.6,0,0,1,174.25,34.54Z"/><g class="cls-4"><path class="cls-5" d="M129.85,9.34l2.4-.2,1.5.1,1.1.1.8.2.9.2,1,.3.7.3.9.4.8.4.7.4.7.4.5.4.3.2.6.5.3.3.5.5.6.7.6.7.5.6.5.8.4.7.5,1,.3.8.3,1.1.3,1.2.1.3.1,2-.1,1.3-.2,1.1-.2,1-.3.9-.3.8-.3.7-.4.8-.4.7-.3.5-.4.5-.4.5-.5.6-8.7,9.4-.3.3-.5.4-.7.6-.5.4-.7.5-.9.5-.9.4-1,.4-.8.3h-.4l-2,.1.5,1.4-.7-.3.2,1.5-1,2.2.5-3-.5,2.5-.7.5-9.3,9.2-.6.5-.5.6h-1.1l.4.7-.9.8-.8-.5-.6,1.1-.6-.5-.8-.4-2,.4-2.7,2.6-1.2-.4-.7.4-.5.1-.7-1.5h-1.8l-.5.3-.8-.4H99l-.9-.4.4-.4-1-.2-1.2-.7-.2-.4h-.5l3-.9-.1-.7-.7-.3-1-.7-.5-.7-.7-.8-1.5-.9-.9-1.1-.8-1.7-2.1-2.2.2-1.6.2-1.1.3-1.2.3-.9.4-.9.4-.7.5-.8.4-.6.4-.5.4-.5.3-.3.2-.3,8.4-9,.3-.3.4-.4.5-.4.7-.5.8-.5.6-.4.8-.4.9-.4.8-.3.6-.2h.2l.1-.4.3-1.1.3-.9.3-.7.4-.8.5-.9.5-.7.4-.5.3-.4.2-.3h.1l.1-.1,8.5-9.1.3-.3.4-.4.5-.4.5-.4.6-.5.5-.4.6-.4.9-.5.9-.4.9-.3,1.2-.4,1.1-.3Zm1,7.1-.9.2-.8.3-.7.3-.6.3-.6.4-.4.3-.5.5-8.6,9.3-.3.4-.4.6-.1.3.3.1.9.2.9.3,1,.4.8.4.5.3.5.3.5.3.7.4.5.4.9.7.4.4.4.4.5.6.4.5.4.5.5.7.5.9.5,1,.2.5h.1l.4-.2.6-.5.4-.4.3-.3,8.2-8.8.2-.3.3-.4.4-.7.3-.5.3-.9.2-.7.1-.5.1-.8-.1-.9-.2-1-.3-.8-.4-.8-.4-.6-.4-.5-.3-.3-.4-.3-.6-.5-.7-.4-.6-.3-.8-.3-.8-.2-.6-.1-.6-.1h-.6Zm-21.8,20.7-1.3-.7-.7.7-.5.4h.2l-8,9.3-2.3.7v1.7l-.5.7,1.5.8-.1.6-.1.8.1,1.1.2,1,.3.8.3.7.5.8.3.4.4.5.5.4.4.3.5.4.5.3.8.4.8.2.6.1.7.1h.9l.9-.1,1.1-.2.8-.3.8-.3.8-.5.4-.3.4-.3.4-.3h.1v-.1l.1-.1,8.3-8.9.2-.3.4-.5.4-.7v-.1l-1.4-.4-1.1-.4-.8-.3-.8-.4-.6-.3-.5-.3-.6-.4-.5-.4-.3-.3-.3-.2-.4-.4-.5-.4-.3-.3-.5-.5-.6-.7-.6-.8-.5-.7-.4-.8-.5-1.2Zm9.2.6.1.2.6.5h.1l-.1-.1-.7-.6Z"/><path class="cls-5" d="M108.65,29.44h0v.4l-.2,1.1-.1.7v1.5l-.1.1v.6l-.1.4v.4l-.1,1.3v1.2l-.1.6v.2l.2.1.2-.1-.5.5-.3.3-8.3,8.9L99,48l-.4.6-.4.7-.3.7-.2.8-.1.6-.1.8.1,1.1.2,1,.3.8.3.7.5.8.3.4.4.5.5.4.3.3.5.4.5.3.8.4.8.2.6.1.7.1h.9l.9-.1,1.1-.2.8-.3.8-.3.8-.5.4-.3.4-.3.4-.3h.1v-.1l.3-.3,8.1-8.8.2-.3.4-.5.4-.7.4-.9.2-.4.1-.5.2-1v-.8l-.1-.9-.2-1-.1-.3-.1-.3-.2-.4-.2-.4-.4-.6-.4-.5-.4-.5-.4-.4-.6-.5-.4-.2-.3-.3v-.1h-.1v-.1h-.1v-.1h-.1v-.2H117v-.2h-.1l-.5-.8-.4-.8-.2-.8-.1-.2v-2l.2-1,.2-.8.3-.6.5-.2-.1.6-.4.5-.3.3.7-1.3h.4l-.2-.1h.3l1,.3,1,.4.8.3.9.5.5.3.5.3.7.5.5.4.9.8.4.4.4.4.5.6.4.5.4.5.5.7.5.9.5,1,.2.5.1.2.3.9.3,1,.2,1.2.1.9v1.1l-.1,1.1-.2,1.4h-.1l-.1.4-.4,1.3-.4,1.1-.4.8-.5,1-.4.7-.3.4-.3.4-.3.4-.2.3-8.8,9.5-.3.3-.5.4-.7.6-.7.5-.6.4-.8.5-1,.5-1,.4-.9.3-1,.3-1.4.3L105,67l-1.7-.1-1-.1-1.2-.3-1.1-.3-1.2-.5-.7-.3-.7-.3-.5-.3-.5-.4-.5-.4-.5-.4-.9-.7-.4-.4-.3-.3-.6-.7-.5-.6-.4-.5-.4-.6-.5-.9L91,58l-.4-1-.3-1.1-.3-1.4-.2-2.5.2-1.6.2-1.1.3-1.3.3-.9.4-.9.4-.7.5-.8.4-.6.4-.5.4-.5.3-.3.2-.3,8.4-9.1.3-.3.4-.4.5-.4.7-.5.8-.5.6-.4.8-.4.9-.5.8-.3.6-.2.1-.1Z"/><path class="cls-5" d="M94,31.14h.5l1.1.2.7.2.3.2.2.3v.2l-.2.4-.3.3L96,33h-.5l-.7-.2-.9-.3-.4-.2-.2-.3v-.3l.2-.3.2-.2Z"/><path class="cls-5" d="M108.85,14.64h.4l.4.1.3.3.3.6.4.8.1.4-.1.3-.2.4-.3.2h-.5l-.3-.2-.3-.3-.6-1.2-.1-.2v-.5l.2-.4.3-.3Z"/><path class="cls-5" d="M99.75,21.14h.5l.3.1,1.2,1.1.2.3.1.4-.1.4-.3.4-.2.1-.2.1H101l-.3-.1-.4-.4-.9-.8-.2-.3V22l.1-.4.2-.3Z"/><path class="cls-5" d="M109.05,37.14l-2,2-1.7-6.5,3.2-3.2A22.88,22.88,0,0,0,109.05,37.14Z"/></g><g class="cls-6"><path class="cls-2" d="M129.85,8.94l2.4-.2,1.5.1,1,.1.8.2.9.2,1,.3.7.3.9.4.8.4.7.4.7.4.5.4.3.2.6.5.3.3.5.5.6.7.6.7.5.6.5.8.4.7.5,1,.3.8.3,1.1.3,1.2.1.3.1,2-.1,1.3-.2,1.1-.2,1-.3.9-.3.8-.3.7-.4.8-.4.7-.3.5-.4.5-.4.5-.5.6-8.7,9.4-.3.3-.5.4-.7.6-.5.4-.7.5-.9.5-.9.4-1,.4-.8.3h-.4l-2,.1.5,1.4-.7-.3.2,1.5-1,2.2.5-3-.5,2.5-.7.5-9.3,9.1-.6.5-.5.6h-1.1l.4.7-.9.8L112,62l-.6,1.1-.6-.5-.8-.4-1.9.4-2.7,2.6-1.2-.4-.7.4-.5.1-.7-1.5h-1.8l-.5.3-.8-.4H99l-.9-.4.4-.4-1-.2-1.2-.7-.2-.4h-.5l3-.9-.1-.7-.7-.3-1-.7-.5-.7-.7-.8-1.5-.9-.9-1.1-.8-1.7-2.1-2.2.2-1.5.2-1.1.3-1.2.3-.9.4-.9.4-.7.5-.8.4-.6.4-.5.4-.5.3-.3.2-.3,8.4-9,.3-.3.4-.4.5-.4.7-.5.8-.5.6-.4.8-.4.9-.4.8-.3.6-.2h.2l.1-.4.3-1.1.3-.9.3-.7.4-.8.5-.9.5-.7.4-.5.3-.4.2-.3h.1l.1-.1,8.4-9.1.3-.3.4-.4.5-.4.5-.4.6-.5.5-.3.6-.4.9-.5.9-.4.9-.3,1.2-.4,1.1-.2Zm1,7.1-.9.2-.8.3-.7.3-.6.3-.6.4-.4.3-.5.5-8.6,9.2-.3.4-.4.6-.1.3.3.1.9.2.9.3,1,.4.8.4.5.3.5.3.5.3.7.4.5.4.9.7.4.4.4.4.5.6.4.5.4.5.5.7.5.9.5,1,.2.5h.1l.4-.2.6-.5.4-.4.3-.3,8.2-8.8.2-.3.3-.4.4-.7.3-.5.3-.9.2-.7.1-.5.1-.8-.1-.9-.2-1-.3-.8-.7-.7-.4-.6-.4-.5-.3-.3-.4-.3-.6-.5-.7-.4-.6-.3-.8-.3-.8-.2-.6-.1-.6-.1h-.6Zm-21.7,20.6-1.3-.7-.7.7-.5.4h.2l-8,9.3-2.2.7v1.7l-.5.7,1.5.8-.1.6-.1.8.1,1.1.2,1,.3.8.3.7.5.8.3.4.4.5.5.4.4.3.5.3.5.3.8.4.8.2.6.1.7.1h.9l.9-.1,1.1-.2.8-.3.8-.3.8-.5.4-.3.4-.3.3-.3h.1v-.1l.1-.1,8.3-8.9.2-.3.4-.5.4-.7V46l-1.4-.4-1.1-.3L117,45l-.8-.4-.6-.3-.5-.3-.6-.4-.5-.4-.3-.3-.3-.2-.4-.4-.5-.4-.3-.3-.5-.5-.6-.7-.6-.8-.5-.7-.4-.8-.5-1.2Zm9.1.6.1.2.6.5h.1l-.1-.1-.7-.6Z"/><path class="cls-3" d="M108.75,28.94h0v.3l-.2,1.1-.1.7v1.5l-.1.1v.6l-.1.4V34l-.1,1.3v1.2l-.1.6v.2l.2.1.2-.1-.5.5-.3.3L99.45,47l-.3.4-.4.6-.4.7-.3.7-.2.8-.1.6-.1.8.1,1.1.2,1,.3.8.3.7.5.8.3.4.4.5.5.4.3.3.5.4.5.3.8.4.8.2.6.1.7.1h.9l.9-.1,1.1-.2.8-.3.8-.3.8-.5.4-.3.4-.3.3-.3h.1v-.1l.3-.3,8.1-8.7.2-.3.4-.5.4-.7.4-.9.2-.4.1-.5.2-1v-.8l-.1-.9-.2-1-.1-.3-.1-.3-.2-.4-.2-.4-.4-.6-.4-.5-.4-.5-.4-.4-.6-.5-.3-.2-.3-.3v-.1h-.1v-.1h-.1V36h-.1v-.2h-.1v-.2h-.1l-.5-.8-.3-.8-.2-.8L116,33V31l.2-1,.2-.8.3-.6.5-.2-.1.6-.4.5-.3.3.7-1.3h.4l-.2-.1h.3l1,.3,1,.4.8.3.9.5.5.3.5.3.7.4.5.4.9.7.4.4.4.4.5.6.4.5.4.5.5.7.5.9.5,1,.2.5.1.2.3.9.3,1,.2,1.2.1.9v1.1l-.1,1.1-.2,1.4h-.1l-.1.4-.4,1.3-.4,1.1-.4.8-.5.9-.4.7-.3.4-.3.4-.3.4-.2.3-8.8,9.5-.3.3-.5.4-.7.6-.7.5-.6.4-.8.5-1,.5-1,.4-.9.3-1,.3-1.4.3-2.5.2-1.7-.1-1-.1-1.2-.3-1.1-.3-1.2-.5-.7-.3-.7-.3-.5-.3-.5-.4-.5-.4-.5-.4-.9-.7-.4-.4-.3-.3-.6-.7-.5-.6-.4-.5-.4-.6-.5-.9-.4-.9-.4-1-.3-1.1-.3-1.4-.2-2.5.2-1.6.2-1.1.3-1.3.3-.9.4-.9.4-.7.5-.8.4-.6.4-.5.4-.5.3-.3.2-.3,8.4-9.1.3-.3.4-.4.5-.4.7-.5.8-.5.6-.4.8-.4.9-.4.8-.3.6-.2-.1.1Z"/><path class="cls-3" d="M94.05,30.64h.5l1.1.2.7.2.3.2.2.3v.2l-.2.4-.3.3-.3.1h-.5l-.7-.2L94,32l-.4-.2-.2-.3v-.3l.2-.3.2-.2Z"/><path class="cls-3" d="M109,14.24h.4l.4.1.3.3.3.6.4.8.1.4-.1.3-.2.4-.3.2h-.5l-.3-.2-.3-.3-.6-1.2-.1-.2v-.5l.2-.4.3-.3Z"/><path class="cls-3" d="M99.85,20.74h.5l.3.1,1.2,1.1.2.3.1.4-.1.4-.3.4-.2.1-.2.1h-.3l-.3-.1-.4-.4-.9-.8-.2-.3v-.4l.1-.4.2-.3Z"/><path class="cls-3" d="M109.15,36.64l-2,2-1.7-6.5,3.2-3.2A22.88,22.88,0,0,0,109.15,36.64Z"/></g><text class="cls-7" transform="translate(7.59 86.9) scale(0.9 1)">Mnemonic URL Shortener</text><rect class="cls-1" width="223.7" height="96.6"/></g></g></svg>